<?xml version="1.0" encoding="UTF-8" standalone="no"?>
<!-- Created with Inkscape (http://www.inkscape.org/) -->

<svg
   xmlns:dc="http://purl.org/dc/elements/1.1/"
   xmlns:cc="http://creativecommons.org/ns#"
   xmlns:rdf="http://www.w3.org/1999/02/22-rdf-syntax-ns#"
   xmlns:svg="http://www.w3.org/2000/svg"
   xmlns="http://www.w3.org/2000/svg"
   xmlns:sodipodi="http://sodipodi.sourceforge.net/DTD/sodipodi-0.dtd"
   xmlns:inkscape="http://www.inkscape.org/namespaces/inkscape"
   id="svg4181"
   version="1.1"
   inkscape:version="0.91 r"
   width="222.48543"
   height="58.03112"
   viewBox="0 0 222.48542 58.031122"
   sodipodi:docname="novi.svg">
  <metadata
     id="metadata4187">
    <rdf:RDF>
      <cc:Work
         rdf:about="">
        <dc:format>image/svg+xml</dc:format>
        <dc:type
           rdf:resource="http://purl.org/dc/dcmitype/StillImage" />
        <dc:title></dc:title>
      </cc:Work>
    </rdf:RDF>
  </metadata>
  <defs
     id="defs4185" />
  <sodipodi:namedview
     pagecolor="#ffffff"
     bordercolor="#666666"
     borderopacity="1"
     objecttolerance="10"
     gridtolerance="10"
     guidetolerance="10"
     inkscape:pageopacity="0"
     inkscape:pageshadow="2"
     inkscape:window-width="1313"
     inkscape:window-height="744"
     id="namedview4183"
     showgrid="false"
     inkscape:zoom="4.0000001"
     inkscape:cx="191.90093"
     inkscape:cy="26.211723"
     inkscape:window-x="53"
     inkscape:window-y="381"
     inkscape:window-maximized="1"
     inkscape:current-layer="layer2"
     inkscape:object-paths="true"
     inkscape:snap-intersection-paths="true"
     inkscape:object-nodes="true"
     inkscape:snap-smooth-nodes="true"
     showguides="true"
     inkscape:guide-bbox="true"
     fit-margin-top="0"
     fit-margin-left="0"
     fit-margin-right="0"
     fit-margin-bottom="0" />
  <g
     inkscape:groupmode="layer"
     id="layer1"
     inkscape:label="Layer 3"
     transform="translate(-1e-5,-1883.5309)" />
  <g
     inkscape:groupmode="layer"
     id="layer2"
     inkscape:label="Layer 2"
     style="display:inline"
     transform="translate(-1e-5,-1883.5309)">
    <g
       id="g3396"
       transform="matrix(0.02988889,0,0,0.02988889,1e-5,1883.5309)">
      <path
         sodipodi:nodetypes="csscsccsccsscssscscssssscc"
         inkscape:connector-curvature="0"
         id="path4191-17"
         d="m 5494.6116,1939.1683 c -19.4991,-2.653 -41.7708,-9.8268 -58.513,-18.8473 -27.6523,-14.8986 -53.5785,-39.7793 -69.1818,-66.392 -4.7326,-8.0719 -886.2939,-1852.1805391 -885.7026,-1852.7718091 0.2329,-0.23303 1.3687,1.52159 2.5238,3.89916 l 2.1002,4.32286 1.1934,-2.83834 c 2.5173,-5.98687 -10.3976,-5.62358 190.3873,-5.35559 l 182.5859,0.24369 5.1849,2.54638 c 2.8516,1.40051 6.3545,3.76725 7.7841,5.25942 2.6473,2.7631801 30.5073,60.8819701 435.6474,908.8003591 115.2297,241.16457 209.7221,438.49667 209.9831,438.51557 0.4058,0.03 182.1782,-379.94487 553.6347,-1157.30923 68.8305,-144.044959 89.8965,-187.326769 92.435,-189.9160191 1.8083,-1.84444 5.3648,-4.37569 7.9031,-5.625 l 4.6152,-2.27148 181.4063,-0.26883 c 99.7734,-0.14786 182.8245,-0.0144 184.5578,0.2965 4.6184,0.82843 7.6297,4.25266 7.6297,8.6757701 0,2.88545 -18.3341,41.98219 -89.1557,190.120739 -49.0356,102.56858 -244.8371,512.17578 -435.1144,910.23835 -190.2771,398.0625 -348.1829,728.1796 -350.9016,733.5937 -26.2886,52.3523 -75.8702,87.5103 -134.1932,95.1558 -13.0107,1.7056 -33.9793,1.673 -46.8096,-0.072 z"
         style="fill:#b02125;fill-opacity:1" />
      <path
         sodipodi:nodetypes="sssccsccsssscsssssscsccsssscssssssssccsscsssscssssssssccssssssscccssssssssss"
         inkscape:connector-curvature="0"
         id="path4191-1"
         d="m 3165.0999,1939.1597 c -159.101,-7.5358 -308.2616,-50.9603 -444.8145,-129.497 -100.305,-57.6891 -192.49,-136.2844 -265.7818,-226.6008 -30.1369,-37.1373 -34.5448,-45.0629 -34.5314,-62.0887 0.01,-6.7688 0.3719,-8.4566 2.992,-13.7787 3.4401,-6.9881 9.1835,-12.5258 17.1941,-16.5786 7.4491,-3.7687 266.0315,-92.1846 275.6107,-94.2383 4.9486,-1.061 11.6817,-1.6575 18.5496,-1.6437 18.9276,0.039 25.0232,3.2069 51.8732,26.9639 21.5731,19.0878 33.0018,28.6475 46.5643,38.9493 86.0159,65.3361 187.1553,106.8114 294.8438,120.9096 32.413,4.2434 61.2438,5.1319 128.9062,3.9723 14.0394,-0.2406 21.5788,0.01 24.8438,0.8241 12.3404,3.0789 24.0602,11.351 33.9533,23.965 5.8127,7.4114 146.9751,234.0389 152.3005,244.5092 8.2036,16.1287 6.3276,31.9068 -5.123,43.0861 -10.0289,9.7914 -20.5742,13.5637 -61.5996,22.0358 -48.1751,9.9486 -98.2739,16.2948 -149.0625,18.8822 -16.2293,0.8269 -71.7559,1.037 -86.7187,0.3283 z m 581.9868,-183.4905 c -9.3192,-3.0566 -17.0418,-9.9393 -21.9523,-19.5645 -3.3247,-6.517 -91.8109,-266.2196 -93.6703,-274.9177 -2.1404,-10.0131 -2.4012,-25.9076 -0.5398,-32.898 2.9339,-11.0175 7.1592,-17.2321 26.3945,-38.8208 17.7576,-19.9302 29.948,-34.6515 41.5335,-50.1562 61.9165,-82.8623 102.5004,-181.5914 116.7677,-284.0625 5.2506,-37.7107 6.5725,-71.67617 4.9437,-127.03137 -0.7518,-25.5498 -0.6998,-27.0461 1.1891,-34.2016 3.1846,-12.0644 11.0371,-23.0121 23.7577,-33.1224 7.5558,-6.0054 237.0686,-148.4636 246.2516,-152.848 5.9452,-2.8386 8.1836,-3.3879 15.166,-3.7217 12.7496,-0.6096 21.4527,3.3787 28.8938,13.2408 7.8468,10.3996 10.755,19.0277 18.2323,54.0904 21.0525,98.7217 26.1838,207.4648 14.5544,308.43757 -29.956,260.0915 -162.5456,496.485 -367.6831,655.5408 -15.2628,11.8341 -21.6331,15.8058 -29.7319,18.5365 -7.619,2.569 -18.7367,3.2602 -24.1069,1.4987 z M 2289.9436,1235.5723 c -7.6276,-3.0046 -15.5985,-11.3696 -20.4212,-21.4308 -4.3602,-9.0963 -7.6018,-21.6499 -14.2792,-55.2983 -13.0704,-65.8629 -18.1658,-118.5195 -18.189,-187.96887 -0.021,-60.6633 3.5313,-104.2418 13.1419,-161.25 31.0853,-184.3914 115.2949,-356.6402 241.7682,-494.53121 43.8712,-47.83175 118.3539,-113.42278 141.573,-124.67223 22.1784,-10.74516 41.499,-5.57146 51.872,13.89036 3.4582,6.48815 91.8626,264.07908 94.5142,275.39318 1.2487,5.3287 1.7223,10.8548 1.6803,19.6074 -0.095,19.7768 -2.747,24.9147 -27.0148,52.342 -29.2907,33.1044 -44.235,52.2504 -62.6885,80.3143 -15.3055,23.2763 -24.5232,39.3731 -37.3113,65.1562 -34.9042,70.3733 -54.9513,141.1588 -62.3944,220.3125 -1.6732,17.794 -2.1845,56.8729 -1.3431,102.65637 0.4187,22.7858 0.3425,24.1951 -1.6268,30.0676 -3.7689,11.2392 -12.9069,22.8219 -25.5648,32.4042 -8.7591,6.6309 -239.9833,149.5384 -245.9976,152.0381 -8.1323,3.3802 -20.5006,3.8127 -27.7189,0.9692 z M 3667.9271,546.64143 c -12.8249,-2.0158 -20.6581,-6.9273 -43.4522,-27.2452 -20.3905,-18.1754 -35.0198,-30.3012 -50.625,-41.9618 -81.4634,-60.8712 -178.5013,-101.11756 -279.5292,-115.93449 -36.271,-5.31956 -41.3596,-5.59211 -104.8458,-5.6157 -58.9151,-0.0218 -59.0766,-0.0272 -64.6875,-2.12943 -11.4139,-4.2764 -23.1099,-14.18092 -32.658,-27.65598 -8.8131,-12.43769 -147.3451,-236.830935 -150.0421,-243.036965 -2.5017,-5.75717 -2.8561,-7.65545 -2.8883,-15.46875 -0.033,-7.88986 0.2617,-9.51368 2.5772,-14.22897 3.4371,-6.99905 11.9239,-14.80619 20.6213,-18.96988 16.067,-7.6917 82.7773,-20.75688 136.6086,-26.7547397 59.4652,-6.6256 129.7959,-7.48841988 190.3125,-2.33476 134.2893,11.4362197 270.2106,53.1729997 389.0412,119.4612647 108.055,60.27714 204.307,141.40452 281.1192,236.94498 27.8453,34.63452 32.8374,44.21042 31.827,61.05072 -0.3157,5.2625 -1.0802,8.4476 -2.8682,11.9487 -2.9597,5.7953 -11.1154,13.453 -17.7913,16.7049 -7.5762,3.6905 -264.4784,91.4001 -273.5154,93.3816 -9.8712,2.1643 -22.2106,2.9437 -29.204,1.8445 z"
         style="fill:#9da0a3;fill-opacity:1" />
      <path
         sodipodi:nodetypes="ccccccccccc"
         inkscape:connector-curvature="0"
         id="path4690"
         d="M 0,826.78985 C 46.448773,339.07697 418.03956,9.2902191 882.52792,4.6412e-4 1347.0163,9.2902191 1718.607,339.07697 1766.9668,823.88864 l -1.9109,1117.67336 -348.3663,0 0.8734,-1116.80758 C 1393.4671,594.54568 1189.0923,348.36673 882.52975,348.36673 c -306.56231,0 -510.93722,246.17895 -534.16165,478.42312 l 0,1114.77215 -348.36626527,0 z"
         style="fill:#b02125;fill-opacity:1" />
      <path
         sodipodi:nodetypes="csccccscccsccccc"
         inkscape:connector-curvature="0"
         id="path4191-4"
         d="m 7104.3281,1939.7318 c -4.5724,-1.0795 -7.7872,-3.746 -10.1932,-8.4546 l -2.1094,-4.1282 0,-956.79015 0,-956.790202 2.1094,-4.1754499 c 1.1601,-2.2965005 3.5479,-5.1315305 5.3062,-6.3000605 l 3.1969,-2.12460998 166.1947,0.24203998 166.1948,0.24204 2.9896,2.8125 c 1.6441,1.54687 3.5702,4.1700405 4.2801,5.8292604 1.937,4.52703 1.937,1916.001932 0,1920.528932 -1.7899,4.1837 -5.9825,7.8093 -10.428,9.018 -4.4481,1.2093 -322.4296,1.2974 -327.5411,0.091 z"
         style="fill:#b02125;fill-opacity:1" />
    </g>
  </g>
</svg>
